<svg height="70" viewBox="0 0 127.75 70" width="127.75" xmlns="http://www.w3.org/2000/svg"><path d="m0 0h127.75v70h-127.75z" fill="#343f5c" opacity="0"/><path d="m-343.92 124.562a9.263 9.263 0 0 1 -1.049 1.276 8.9 8.9 0 0 1 -9.469 1.721 8.768 8.768 0 0 1 -5.88-7.514 9.7 9.7 0 0 1 7.084-10.76 9.288 9.288 0 0 1 11.578 8.772 9.491 9.491 0 0 1 -1.4 5.3l-1.987-.552zm-9.4-8.056c-.878-.442-1.751-.895-2.635-1.323-.609-.3-1.234-.557-1.852-.834l-.145-.14-.058.09.2.055a6.319 6.319 0 0 0 .563.66c.867.779 1.751 1.539 2.623 2.313.164.146.3.327.553.616h-5.15l-.021.158 4.775 1.205.014.18-4.488 2.37.083.174 4.963-1.205c-.691 1.26-1.463 2.357-2.216 3.467a7.136 7.136 0 0 0 -.43.854.214.214 0 0 0 -.075.015c-.011.007-.008.038-.011.059l.072-.087c.489-.377.993-.736 1.463-1.135.787-.669 1.551-1.365 2.325-2.05l.174.092-.571 4.9.2.047 1.863-4.863 1.914 5.009.181-.057-.648-5.327 4.074 3.608.129-.134-2.93-4.256.1-.154c1.18.3 2.357.6 3.541.88.43.1.875.138 1.313.2l.028.022h-.042c-.758-.45-1.509-.914-2.277-1.346-.688-.388-1.395-.742-2.277-1.208l5.069-1.262-.03-.19h-5.266l4.03-3.57-.122-.167-4.706 2.459 1.843-4.93-.192-.08-2.988 4.322-.654-5.3h-.178q-.323 2.524-.645 5.047c-.88-.992-2.824-3.689-3.1-4.03l-.04-.047c-.006 0 .592 1.713.865 2.552.255.787.516 1.572.774 2.358z" fill="#0076c0" transform="translate(436.138 -101.107)"/><g fill="#201e1f"><path d="m-601.9 221.349a10.667 10.667 0 0 1 -5.016-.364 6 6 0 0 1 -4.335-5.389 12.551 12.551 0 0 1 9.776-13.4 10.748 10.748 0 0 1 4.011-.135c3.729.61 5.978 3.2 5.865 6.967a12.5 12.5 0 0 1 -6.987 11.227c-.157.085-.317.166-.473.252-.021.012-.03.045-.093.145a18.709 18.709 0 0 0 7.239 2.7l-2.464 2.123a24.959 24.959 0 0 1 -7.523-4.126zm7.18-12.033a9.545 9.545 0 0 0 0-.986 4.645 4.645 0 0 0 -3.871-4.237 7.107 7.107 0 0 0 -5.333 1.377 10.825 10.825 0 0 0 -4.076 7.04 8.163 8.163 0 0 0 0 3.294 4.45 4.45 0 0 0 4.358 3.57 7.263 7.263 0 0 0 5.1-1.861 11.176 11.176 0 0 0 3.825-8.196z" transform="translate(641.924 -177.341)"/><path d="m-499.742 223.527h-2.909l4.024-18.517c2.638 0 5.181 0 7.724.005a3.83 3.83 0 0 1 .707.119 3.437 3.437 0 0 1 2.883 4.294 5.513 5.513 0 0 1 -1.351 2.7 9.03 9.03 0 0 1 -2.8 2.062c-.345.166-.69.334-1.114.539l2.345 4.375 2.343 4.365h-3.28l-4.115-8.063h-2.647zm2.246-10.261a7.239 7.239 0 0 0 4.366-.524 4.589 4.589 0 0 0 2.716-3.345 1.611 1.611 0 0 0 -1.1-2.059 12.858 12.858 0 0 0 -4.612-.295z" transform="translate(552.811 -179.869)"/><path d="m-410.73 205.021h2.947l-4 18.466h-2.937z" transform="translate(480.691 -179.878)"/></g><path d="m-263.925 192.553-2.256 2.922c-.924-1.464-2.8-4.58-2.8-4.58s3.347 1.123 5.056 1.658z" fill="#a7a9ae" transform="translate(361.158 -168.292)"/><path d="m-321.12 150.849h.061l-.044-.023z" fill="#201e1f" transform="translate(403.919 -135.432)"/></svg>