<svg height="70" viewBox="0 0 127.75 70" width="127.75" xmlns="http://www.w3.org/2000/svg"><path d="m0 0h127.75v70h-127.75z" fill="#343f5c" opacity="0"/><path d="m-2538.093 2464v1.553a14.655 14.655 0 0 0 -.011 24.791v1.542h-1.658c-2.99-4.3-7.066-6.719-12.356-6.726s-9.375 2.4-12.4 6.732h-1.458v-1.558c4.268-3.031 6.711-7.08 6.711-12.37s-2.44-9.339-6.731-12.387v-1.577h1.486c.044.076.083.155.131.228a13.909 13.909 0 0 0 2.641 2.992 14.32 14.32 0 0 0 12.512 3.275 14.349 14.349 0 0 0 8.922-5.7 3.714 3.714 0 0 0 .517-.792zm-6.6 21.4a16.189 16.189 0 0 1 -1.792-7.441 16.455 16.455 0 0 1 1.761-7.411 16.326 16.326 0 0 1 -7.432 1.766 16.086 16.086 0 0 1 -7.424-1.8 16.439 16.439 0 0 1 .017 14.868 16.454 16.454 0 0 1 14.874.018z" fill="#179f76" transform="translate(2577.379 -2443)"/><path d="m-2481.1 2464a4.665 4.665 0 0 1 -.654.827 12.864 12.864 0 0 1 -7.458 4.19 12.826 12.826 0 0 1 -10.3-2.506 12.5 12.5 0 0 1 -2.488-2.511h2.016c0 .1.087.148.147.207a11.415 11.415 0 0 0 9.6 3.437 11.126 11.126 0 0 0 5.743-2.317 8.717 8.717 0 0 0 1.434-1.327z" fill="#179f76" transform="translate(2516.775 -2443)"/><path d="m-726.307 2640.91a.676.676 0 0 1 -.288.024q-1.127 0-2.253 0h-.317v7.5h-2.081v-7.495h-2.866v-1.893a.687.687 0 0 1 .331-.035h7.158c.106 0 .211-.008.317-.012z" fill="#023042" transform="translate(842.682 -2608.715)"/><path d="m-2408.691 2464c-.031.091-.117.126-.186.177a9.821 9.821 0 0 1 -4.842 1.9 9.9 9.9 0 0 1 -7.085-1.907c-.07-.051-.154-.087-.2-.171h3.024c.02.063.082.061.128.078a8.408 8.408 0 0 0 4.392.44 7.162 7.162 0 0 0 1.794-.518z" fill="#179f76" transform="translate(2440.072 -2443)"/><path d="m-1395.339 2642.655a4.623 4.623 0 0 1 .756.4 2.013 2.013 0 0 1 .875 1.536 3.345 3.345 0 0 1 -.012.873 2.12 2.12 0 0 1 -1.332 1.688 4.5 4.5 0 0 1 -1.783.35c-1.582.015-3.165.009-4.747.011a1.108 1.108 0 0 1 -.115-.015v-9.378c.068-.055.142-.035.21-.035q2.121 0 4.243 0a4.156 4.156 0 0 1 1.682.315 2.3 2.3 0 0 1 1.5 1.869 2.122 2.122 0 0 1 -.88 2.111c-.119.085-.243.167-.397.275zm-4.266 3.1h2.71a1.506 1.506 0 0 0 .519-.1.829.829 0 0 0 .572-.668.991.991 0 0 0 -.909-1.283 2.3 2.3 0 0 0 -.317-.026q-1.246-.007-2.493-.007a.27.27 0 0 0 -.082.033zm0-3.858a.791.791 0 0 0 .122.022h1.986a2.212 2.212 0 0 0 .779-.133.817.817 0 0 0 .586-.821.811.811 0 0 0 -.581-.824 1.385 1.385 0 0 0 -.409-.1c-.8-.063-1.605-.025-2.408-.025-.022 0-.045.023-.074.04z" fill="#023042" transform="translate(1474.848 -2607.843)"/><path d="m-959.787 2645.8a4.877 4.877 0 0 1 -4.37-2.384 4.844 4.844 0 0 1 3.126-7.229 5.021 5.021 0 0 1 4.584 1.014 4.6 4.6 0 0 1 1.608 4.737 4.687 4.687 0 0 1 -3.354 3.626 4.928 4.928 0 0 1 -1.594.236zm2.8-5.024a2.657 2.657 0 0 0 -.179-.934 2.689 2.689 0 0 0 -2.476-1.885 2.632 2.632 0 0 0 -2.581 1.474 3.175 3.175 0 0 0 .049 3.031 2.757 2.757 0 0 0 4.308.676 3.091 3.091 0 0 0 .877-2.365z" fill="#023042" transform="translate(1061.175 -2605.889)"/><path d="m-1196.627 2645.958a4.733 4.733 0 0 1 -4.382-2.564 4.866 4.866 0 0 1 3.66-7.145 4.845 4.845 0 0 1 4.442 1.482 4.7 4.7 0 0 1 1.237 3.96 4.743 4.743 0 0 1 -3.64 4.112 5.349 5.349 0 0 1 -1.317.155zm2.906-4.785a3.453 3.453 0 0 0 -.237-1.331 2.762 2.762 0 0 0 -4.623-.82 3.072 3.072 0 0 0 -.626 2.815 2.766 2.766 0 0 0 4.5 1.56 2.92 2.92 0 0 0 .986-2.224z" fill="#023042" transform="translate(1285.347 -2606.05)"/><path d="m-1819.918 2644.187 2.281 3.292h-2.43l-2.011-2.942h-1.6v2.936h-2.072v-9.373c.068-.059.151-.034.227-.034q2 0 4 0a5.2 5.2 0 0 1 1.26.148 2.927 2.927 0 0 1 2.34 2.9 3.678 3.678 0 0 1 -.121 1.1 2.761 2.761 0 0 1 -1.512 1.781c-.063.031-.129.057-.192.089s-.121.022-.17.103zm-3.759-1.439c.229.032 2.164.037 2.35.01a1.382 1.382 0 0 0 1.292-1.642 1.276 1.276 0 0 0 -1.24-1.1c-.757-.073-1.518-.021-2.277-.031a.132.132 0 0 0 -.125.062z" fill="#023042" transform="translate(1876.405 -2607.822)"/><path d="m-1608.618 2641.44v1.916h4.421v1.855h-4.413v1.99h5.086v1.826h-7.157v-9.406h7.086v1.819z" fill="#023042" transform="translate(1672.745 -2609.303)"/><g fill="#179f76"><path d="m-2133.454 2551.316c-6.953-4.9-6.99-15.944-.013-20.885v1.934a11.6 11.6 0 0 0 .013 17.02z" transform="translate(2172.735 -2505.906)"/><path d="m-2499.442 2897.28h-1.959a13.188 13.188 0 0 1 4.118-3.56 12.84 12.84 0 0 1 5.153-1.575 13 13 0 0 1 11.571 5.142h-1.931a11.383 11.383 0 0 0 -8.495-3.672 11.383 11.383 0 0 0 -8.457 3.665z" transform="translate(2516.207 -2848.381)"/><path d="m-2565.869 2552.436v-1.923a11.41 11.41 0 0 0 3.649-8.448 11.433 11.433 0 0 0 -3.655-8.466v-1.911a12.928 12.928 0 0 1 5.177 10.047 12.983 12.983 0 0 1 -5.171 10.701z" transform="translate(2577.261 -2507.096)"/><path d="m-2078.424 2623.853a9.9 9.9 0 0 1 -.024-12.249c.084.031.046.1.046.156q0 1.272 0 2.545a.551.551 0 0 1 -.042.257 6.038 6.038 0 0 0 -.572 2.3 9.056 9.056 0 0 0 .289 3.332 2.555 2.555 0 0 0 .167.445 1.545 1.545 0 0 1 .161.789c-.009.742 0 1.485 0 2.226-.001.064.019.136-.025.199z" transform="translate(2117.69 -2582.773)"/><path d="m-2419 2952.459a9.893 9.893 0 0 1 12.161.025h-.234c-.849 0-1.7 0-2.546 0a1.045 1.045 0 0 1 -.361-.063 8.435 8.435 0 0 0 -5.913 0 .876.876 0 0 1 -.308.067c-.9 0-1.8 0-2.705 0-.032-.004-.069.006-.094-.029z" transform="translate(2438.177 -2903.578)"/><path d="m-2566.069 2613.3a9.838 9.838 0 0 1 .022 12.082.416.416 0 0 1 -.021-.229c0-.83 0-1.66 0-2.491a1.31 1.31 0 0 1 .074-.44 8.847 8.847 0 0 0 .512-2.879 8.85 8.85 0 0 0 -.5-2.855 1.462 1.462 0 0 1 -.083-.49c.005-.813 0-1.625 0-2.438z" transform="translate(2577.448 -2584.376)"/></g></svg>