<svg height="70" viewBox="0 0 127.75 70" width="127.75" xmlns="http://www.w3.org/2000/svg"><path d="m0 0h127.75v70h-127.75z" fill="#343f5c" opacity="0"/><path d="m68.58 4.556a2.184 2.184 0 1 0 0-4.367 2.21 2.21 0 0 0 -2.226 2.171 2.2 2.2 0 0 0 2.226 2.196z" fill="#2c3242" transform="translate(25.604 22.837)"/><path d="m51.566 5.422h3.315v2a6.074 6.074 0 0 1 4.859-2.3 7.441 7.441 0 0 1 7.26 7.737 7.456 7.456 0 0 1 -7.263 7.736 6.112 6.112 0 0 1 -4.859-2.3v8.21h-3.312zm7.566 2.67a4.5 4.5 0 0 0 -4.53 4.766 4.524 4.524 0 1 0 9.034 0 4.513 4.513 0 0 0 -4.503-4.765z" fill="#2c3242" transform="translate(23.639 23.493)"/><path d="m71.938 5.422h3.315v2.022a5.2 5.2 0 0 1 4.58-2.321c3.492 0 5.77 2.445 5.77 6.213v8.958h-3.315v-8.409c0-2.346-1.215-3.768-3.138-3.768-2.2 0-3.9 1.7-3.9 4.866v7.311h-3.312z" fill="#2c3242" transform="translate(26.346 23.493)"/><path d="m30.2 5.779a5.2 5.2 0 0 0 -4.581 2.321v-7.911h-3.319v20.761h3.315v-7.311c0-3.169 1.7-4.866 3.9-4.866 1.923 0 3.138 1.422 3.138 3.768v8.409h3.315v-8.958c-.024-3.768-2.276-6.213-5.768-6.213z" fill="#2c3242" transform="translate(19.751 22.837)"/><path d="m70.138 5.387h-3.315v14.873h3.315z" fill="#2c3242" transform="translate(25.666 23.528)"/><path d="m43.892 20.594a7.737 7.737 0 1 1 7.9-7.736 7.73 7.73 0 0 1 -7.9 7.736zm0-3.044a4.484 4.484 0 0 0 4.53-4.691 4.545 4.545 0 1 0 -9.085 0 4.49 4.49 0 0 0 4.555 4.691z" fill="#2c3242" transform="translate(21.57 23.493)"/><g fill="#175fff"><path d="m12.485 4.185c-.025 1-.734 2.421-1.923 2.421a1.341 1.341 0 0 1 -1.341-1.323v-.025a3.946 3.946 0 0 0 -1.392-2.92 4.353 4.353 0 0 0 -2.277-.973 4.057 4.057 0 0 1 2.91-1.2 4.237 4.237 0 0 1 3.517 2.021 3.731 3.731 0 0 1 .506 1.999z" transform="translate(17.525 22.834)"/><path d="m8.354 3.969c.633.8 1.012 2.321.1 3.069a1.368 1.368 0 0 1 -1.9-.15 4.112 4.112 0 0 0 -5.336-.648 3.954 3.954 0 0 1 1.442-2.77 4.134 4.134 0 0 1 4.1-.649 3.491 3.491 0 0 1 1.594 1.148z" transform="translate(16.949 23.149)"/><path d="m4.948 6.5c.987.2 2.3 1.148 2.1 2.3a1.35 1.35 0 0 1 -1.568 1.065h-.026a4.06 4.06 0 0 0 -3.138.848 4 4 0 0 0 -1.366 2.047 4.1 4.1 0 0 1 -.709-3.044 4.113 4.113 0 0 1 2.733-3.094 4.088 4.088 0 0 1 1.974-.122z" transform="translate(16.812 23.666)"/><path d="m3.977 10.582c.886-.474 2.505-.574 3.087.424a1.33 1.33 0 0 1 -.481 1.822 4 4 0 0 0 -1.873 2.645 3.839 3.839 0 0 0 .3 2.421 3.989 3.989 0 0 1 -2.45-5.964 3.648 3.648 0 0 1 1.417-1.348z" transform="translate(17.049 24.172)"/><path d="m5.917 14.244c.38-.923 1.544-2.021 2.632-1.622a1.319 1.319 0 0 1 .81 1.7 3.9 3.9 0 0 0 .3 3.194 4 4 0 0 0 1.8 1.672 4.076 4.076 0 0 1 -5.77-3.019 4.117 4.117 0 0 1 .228-1.925z" transform="translate(17.539 24.478)"/><path d="m9.835 15.717c-.329-.948-.152-2.52.962-2.92a1.338 1.338 0 0 1 1.721.8 4.059 4.059 0 0 0 2.328 2.271 4.187 4.187 0 0 0 2.48.15 4.059 4.059 0 0 1 -6.377 1.348 3.99 3.99 0 0 1 -1.114-1.649z" transform="translate(18.074 24.502)"/><path d="m13.864 14.422c-.864-.522-1.771-1.846-1.164-2.844a1.4 1.4 0 0 1 1.847-.5 4.1 4.1 0 0 0 5.264-1.2 3.89 3.89 0 0 1 -.4 3.069 4.048 4.048 0 0 1 -3.619 2 3.521 3.521 0 0 1 -1.928-.525z" transform="translate(18.448 24.125)"/><path d="m16.042 11.142c-1.012.15-2.556-.3-2.758-1.447a1.3 1.3 0 0 1 1.088-1.522h.028a3.963 3.963 0 0 0 2.657-1.847 3.85 3.85 0 0 0 .557-2.371 3.891 3.891 0 0 1 1.7 2.6 4.029 4.029 0 0 1 -1.468 3.818 3.836 3.836 0 0 1 -1.804.769z" transform="translate(18.548 23.337)"/><path d="m15.328 7.059c-.683.749-2.151 1.4-3.062.649a1.3 1.3 0 0 1 -.177-1.872 3.929 3.929 0 0 0 .835-3.119 4.073 4.073 0 0 0 -1.114-2.195 4.13 4.13 0 0 1 3.011.923 3.961 3.961 0 0 1 1.366 3.868 3.68 3.68 0 0 1 -.859 1.746z" transform="translate(18.351 22.879)"/></g></svg>