<svg height="70" viewBox="0 0 127.75 70" width="127.75" xmlns="http://www.w3.org/2000/svg"><path d="m0 0h127.75v70h-127.75z" fill="#343f5c" opacity="0"/><path d="m531.45 674.518v-8.456a4.118 4.118 0 0 1 .534-2.332 1.833 1.833 0 0 1 1.614-.769 2 2 0 0 1 1.141.345 3.041 3.041 0 0 1 .914 1.049 4.189 4.189 0 0 1 1.507-1.056 5.146 5.146 0 0 1 1.934-.339 5.775 5.775 0 0 1 2.455.495 4.984 4.984 0 0 1 1.841 1.485 6.349 6.349 0 0 1 1.988-1.518 5.6 5.6 0 0 1 2.348-.463 4.542 4.542 0 0 1 3.588 1.446 5.948 5.948 0 0 1 1.281 4.078v6.033a4.022 4.022 0 0 1 -.534 2.306 1.858 1.858 0 0 1 -1.628.756 1.829 1.829 0 0 1 -1.614-.749 4.1 4.1 0 0 1 -.52-2.313v-4.756a4.769 4.769 0 0 0 -.474-2.423 1.62 1.62 0 0 0 -1.487-.769 1.851 1.851 0 0 0 -1.641.756 4.279 4.279 0 0 0 -.52 2.384v4.808a4.023 4.023 0 0 1 -.534 2.306 2.131 2.131 0 0 1 -3.255 0 4.022 4.022 0 0 1 -.534-2.306v-4.756a4.82 4.82 0 0 0 -.467-2.43 1.6 1.6 0 0 0 -1.468-.762 1.851 1.851 0 0 0 -1.641.756 4.278 4.278 0 0 0 -.52 2.384v4.808a4.023 4.023 0 0 1 -.534 2.306 2.123 2.123 0 0 1 -3.248 0 4.062 4.062 0 0 1 -.526-2.304z" transform="translate(-496.395 -635.158)"/><path d="m589.028 675.529a4.6 4.6 0 0 1 -1.681 1.479 4.9 4.9 0 0 1 -2.228.489 5.623 5.623 0 0 1 -4.422-2.1 7.7 7.7 0 0 1 -1.807-5.212 7.591 7.591 0 0 1 1.948-5.29 6.169 6.169 0 0 1 4.749-2.15 4.868 4.868 0 0 1 1.941.365 4.081 4.081 0 0 1 1.5 1.134 2.869 2.869 0 0 1 .86-.984 1.812 1.812 0 0 1 1.047-.358 1.861 1.861 0 0 1 1.634.749 4.031 4.031 0 0 1 .527 2.3v8.456a21.92 21.92 0 0 1 -.233 3.642 5.971 5.971 0 0 1 -.78 2.169 6.09 6.09 0 0 1 -2.608 2.352 8.989 8.989 0 0 1 -3.942.8 10.255 10.255 0 0 1 -4.549-.873q-1.761-.873-1.761-2.2a1.773 1.773 0 0 1 .527-1.316 1.809 1.809 0 0 1 1.327-.521 7.687 7.687 0 0 1 1.861.56 7.78 7.78 0 0 0 2.755.56 3.262 3.262 0 0 0 2.481-.925 3.649 3.649 0 0 0 .88-2.619q0-.078-.013-.248t-.013-.26zm-5.682-5.342a3.947 3.947 0 0 0 .787 2.554 2.486 2.486 0 0 0 2.028.977 2.518 2.518 0 0 0 2.041-.984 3.909 3.909 0 0 0 .8-2.547 3.742 3.742 0 0 0 -.8-2.482 2.543 2.543 0 0 0 -2.041-.958 2.5 2.5 0 0 0 -2.028.958 3.783 3.783 0 0 0 -.788 2.482z" transform="translate(-520.677 -635.048)"/><path d="m613.9 671.719v-5.6a3.989 3.989 0 0 1 .534-2.3 1.864 1.864 0 0 1 1.627-.749 1.833 1.833 0 0 1 1.607.749 4.029 4.029 0 0 1 .527 2.3v4.743a4.093 4.093 0 0 0 .52 2.378 2.407 2.407 0 0 0 3.388 0 4.091 4.091 0 0 0 .52-2.378v-4.743a4.028 4.028 0 0 1 .527-2.3 1.861 1.861 0 0 1 1.634-.749 1.821 1.821 0 0 1 1.6.743 4.065 4.065 0 0 1 .52 2.306v5.6a6.017 6.017 0 0 1 -1.667 4.58 8.166 8.166 0 0 1 -9.665 0 6 6 0 0 1 -1.674-4.58z" transform="translate(-538.595 -635.212)"/><path d="m646.552 674.491v-8.456a4.027 4.027 0 0 1 .527-2.3 1.846 1.846 0 0 1 1.621-.749 2.069 2.069 0 0 1 1.161.332 2.881 2.881 0 0 1 .894 1.01 4.855 4.855 0 0 1 1.414-1.062 3.457 3.457 0 0 1 1.508-.358 2.152 2.152 0 0 1 1.541.619 1.962 1.962 0 0 1 .647 1.466q0 1.264-2.375 2.111-.854.3-1.281.5a2.335 2.335 0 0 0 -1.081.84 3.659 3.659 0 0 0 -.267 1.674v4.378a4.023 4.023 0 0 1 -.534 2.306 1.859 1.859 0 0 1 -1.628.756 1.841 1.841 0 0 1 -1.621-.756 4.061 4.061 0 0 1 -.527-2.306z" transform="translate(-555.31 -635.13)"/><path d="m520.593 674.573a4.1 4.1 0 0 1 -.52 2.313 1.815 1.815 0 0 1 -1.6.749 1.858 1.858 0 0 1 -1.627-.756 4.021 4.021 0 0 1 -.534-2.306v-8.456a4.029 4.029 0 0 1 .527-2.3 1.861 1.861 0 0 1 1.634-.749 1.815 1.815 0 0 1 1.6.749 4.071 4.071 0 0 1 .52 2.3z" transform="translate(-488.646 -635.212)"/><path d="m515.627 653.253a2.319 2.319 0 0 1 .734-1.72 2.431 2.431 0 0 1 1.761-.717 2.371 2.371 0 0 1 1.734.717 2.421 2.421 0 0 1 .007 3.44 2.386 2.386 0 0 1 -1.741.7 2.441 2.441 0 0 1 -1.774-.7 2.312 2.312 0 0 1 -.721-1.72z" fill="#89c623" transform="translate(-488.296 -628.941)"/></svg>