<svg height="70" viewBox="0 0 127.75 70" width="127.75" xmlns="http://www.w3.org/2000/svg"><path d="m0 0h127.75v70h-127.75z" fill="#343f5c" opacity="0"/><g fill="#d51900" fill-rule="evenodd"><path d="m44.8 11.028a.3.3 0 0 1 .312-.323c.294 0 .737.323.988.968-.09 0-.225.028-.315.028-.539-.001-.985-.263-.985-.673zm-32.368 0a.3.3 0 0 1 .314-.323c.286 0 .712.323.959.968-.83 0-1.276-.184-1.276-.645zm6.243-3.336c0-3.454.65-3.984.852-3.984.359 0 .4.232.4 1.556a8.118 8.118 0 0 1 -1.254 4.12zm22.725 3.408a4.091 4.091 0 0 0 -.7 2.36c0 1.946 1.072 3.8 3.156 3.8 2.015 0 3.426-1.647 3.426-3.944a4.959 4.959 0 0 0 -.067-1.036 5.464 5.464 0 0 0 1.187-.792 1.2 1.2 0 0 1 .627-.325c.2 0 .289.163.289.463v4.544c0 .74.226 1.089.784 1.089a1.223 1.223 0 0 0 1.075-.812c.741-1.6 1.813-3.729 2.282-4.539.113-.186.2-.328.268-.328.09 0 .136.071.136.37v3.62c0 1.018.449 1.691 1.43 1.691 1.032 0 1.544-1.023 2.446-2.6a.547.547 0 0 0 .062-.229.333.333 0 0 0 -.355-.327c-.2 0-.315.21-.985.973-.136.145-.267.346-.516.346-.089 0-.157-.112-.157-.253v-4.055c0-1.089-.471-1.529-1.075-1.529a1.509 1.509 0 0 0 -1.321.858 40.748 40.748 0 0 0 -1.969 3.637c-.048.1-.112.235-.156.235s-.067-.072-.067-.235v-2.966c0-.855-.224-1.529-1.1-1.529-.919 0-1.388.65-2.059 1.135a6.383 6.383 0 0 1 -1.095.7c-.45-1.181-1.277-1.78-1.971-1.762a1.146 1.146 0 0 0 -1.188 1.209 1.591 1.591 0 0 0 1.052 1.526 2.682 2.682 0 0 0 1.1.165 1.4 1.4 0 0 0 .355-.026 4.563 4.563 0 0 1 .026.813 2.041 2.041 0 0 1 -1.857 2.269c-1.257 0-1.993-1.251-1.993-2.686a4.086 4.086 0 0 1 .823-2.615c.207-.233.361-.375.361-.589 0-.108-.154-.135-.29-.135a5.612 5.612 0 0 0 -2.438.741 14.637 14.637 0 0 0 -2.69 2c-.4-.929-.895-1.74-1.142-2.368-.089-.255-.154-.55-.333-.55-.159 0-.228.162-.337.481a29.069 29.069 0 0 1 -3.024 5.305c-.044.066-.109.14-.131.14-.049 0-.074-.023-.074-.164v-4.06c0-1.089-.425-1.529-1-1.529a1.482 1.482 0 0 0 -1.321.858c-.737 1.161-1.637 2.852-2.061 3.684-.068.143-.136.187-.159.187s-.04-.092-.04-.235v-2.965c0-1.089-.427-1.529-1.01-1.529a1.46 1.46 0 0 0 -1.344.858c-.938 1.647-2.5 4.172-2.8 4.586a.376.376 0 0 1 -.135.141c-.044 0-.07-.045-.07-.16v-3.9c0-1.089-.425-1.529-1-1.529-.807 0-1.253.768-1.547 1.252-.4.672-.94 1.577-1.364 2.413a4.042 4.042 0 0 1 -.63 1.065c-.043 0-.043-.21-.043-.6v-3.1a8.826 8.826 0 0 0 2.282-5.793c0-1.254-.535-1.945-1.361-1.945-1.548 0-2.732 2.5-2.732 5.466v2.409a6.019 6.019 0 0 1 -2.22.858c-.424-1.295-1.321-1.967-2.035-1.949a1.147 1.147 0 0 0 -1.187 1.209c0 1.226 1.165 1.736 2.192 1.736h.29a4.13 4.13 0 0 1 .044.743 2.04 2.04 0 0 1 -1.854 2.269c-1.253 0-1.993-1.251-1.993-2.686a4.063 4.063 0 0 1 .826-2.615 1.222 1.222 0 0 0 .361-.589c0-.108-.158-.135-.294-.135-.85 0-2.728 1.186-4.969 3.5a51.827 51.827 0 0 1 -.421-5.425 20.883 20.883 0 0 1 .466-4.122 4.86 4.86 0 0 0 .073-.623c0-.187-.1-.282-.337-.282-1.816 0-5.802 2.99-5.802 7.461 0 3.171 1.122 4.7 3.066 6.67a13.3 13.3 0 0 0 -2.126 6.395c0 1.5.339 2.642 1.411 2.642 2.24 0 3.917-4.816 3.917-8.386 0-1.065-.041-2.132-.129-3.2a15.164 15.164 0 0 1 2.413-2.248 5.722 5.722 0 0 0 -.223 1.48c0 1.946 1.077 3.8 3.156 3.8 1.951 0 3.426-1.647 3.426-3.944 0-.3-.023-.554-.043-.831a5.719 5.719 0 0 0 1.993-.716v4.656a.757.757 0 0 0 .781.835c.518 0 .786-.373 1.163-1.226.317-.7 1.165-2.3 1.679-3.248.406-.744.63-1.226.81-1.226.042 0 .09.113.09.392v3.963c0 1.066.537 1.346 1 1.346a1.239 1.239 0 0 0 1.032-.673c1.165-1.716 2.4-3.752 2.887-4.636.091-.158.2-.278.292-.278s.133.05.133.347v4.15c0 .74.224 1.089.786 1.089a1.188 1.188 0 0 0 1.047-.812c.744-1.6 1.838-3.708 2.31-4.539.109-.186.222-.349.289-.349.093 0 .114.113.114.416v3.938c0 1.066.537 1.346 1.011 1.346.621 0 1.029-.466 1.431-1 .734-1 1.81-2.777 2.46-3.918a10.125 10.125 0 0 1 .674 1.3 3.887 3.887 0 0 0 -1.077 2.244 1.258 1.258 0 0 0 1.187 1.371 2.235 2.235 0 0 0 1.967-2.433 5.11 5.11 0 0 0 -.354-1.69 7.719 7.719 0 0 1 2.827-2.027zm-36.879 5.047a25.18 25.18 0 0 1 .338 3.382c0 2.22-.714 4.816-1.947 4.795-.476 0-.876-.492-.9-1.345a11.216 11.216 0 0 1 2.5-6.832zm32.686-1.579a3.18 3.18 0 0 1 .2 1.045c0 .371-.135.743-.383.743-.176 0-.356-.209-.356-.534a2.791 2.791 0 0 1 .539-1.254zm-31.878-11.048c0 .141-.314.788-.715 1.948a15.03 15.03 0 0 0 -.831 4.978 34.68 34.68 0 0 0 .542 4.5l-.717 1a8.549 8.549 0 0 1 -1.859-5.846c0-3.937 2.305-6.669 3.49-6.669.071 0 .091.02.091.088z" transform="translate(2.644 20.986)"/><path d="m239.737 11.028a.3.3 0 0 1 .312-.323c.289 0 .737.323.983.968-.087 0-.221.028-.315.028-.533-.001-.98-.263-.98-.673zm-32.374 0a.3.3 0 0 1 .314-.323c.291 0 .721.323.962.968-.829 0-1.277-.184-1.277-.645zm6.247-3.336c0-3.454.646-3.984.85-3.984.357 0 .4.232.4 1.556a8.134 8.134 0 0 1 -1.253 4.12zm-14.147 8.455a26.427 26.427 0 0 1 .337 3.382c0 2.22-.715 4.816-1.95 4.795-.469 0-.872-.492-.895-1.345a11.2 11.2 0 0 1 2.508-6.832zm32.686-1.579a3.167 3.167 0 0 1 .2 1.045c0 .371-.134.743-.38.743-.177 0-.361-.209-.361-.534a2.772 2.772 0 0 1 .54-1.254zm-31.885-11.048c0 .141-.31.788-.716 1.948a15.124 15.124 0 0 0 -.828 4.978 35.3 35.3 0 0 0 .543 4.5l-.719 1a8.566 8.566 0 0 1 -1.86-5.841c0-3.937 2.31-6.669 3.495-6.669.065 0 .085.02.085.088zm-3.733 11.58a13.662 13.662 0 0 0 1.476 1.668 13.217 13.217 0 0 0 -2.127 6.394c0 1.5.338 2.642 1.413 2.642 2.236 0 3.914-4.816 3.914-8.386 0-1.065-.044-2.132-.133-3.2a15.022 15.022 0 0 1 2.419-2.248 5.661 5.661 0 0 0 -.228 1.48c0 1.946 1.076 3.8 3.16 3.8 1.946 0 3.423-1.647 3.423-3.944 0-.3-.021-.554-.045-.831a5.676 5.676 0 0 0 1.994-.716v4.656a.757.757 0 0 0 .779.835c.522 0 .79-.373 1.169-1.226.312-.7 1.165-2.3 1.681-3.248.4-.744.626-1.226.809-1.226.042 0 .084.113.084.392v3.963c0 1.066.536 1.346 1.007 1.346a1.248 1.248 0 0 0 1.035-.673c1.161-1.716 2.394-3.752 2.885-4.636.09-.158.2-.278.29-.278s.137.05.137.347v4.15c0 .74.221 1.089.78 1.089a1.2 1.2 0 0 0 1.054-.812c.739-1.6 1.835-3.708 2.3-4.539.114-.186.226-.349.3-.349.087 0 .112.113.112.416v3.938c0 1.066.533 1.346 1 1.346.631 0 1.035-.466 1.435-1 .738-1 1.816-2.777 2.464-3.918a10.443 10.443 0 0 1 .674 1.3 3.855 3.855 0 0 0 -1.075 2.244 1.254 1.254 0 0 0 1.183 1.384 2.235 2.235 0 0 0 1.967-2.433 5.076 5.076 0 0 0 -.357-1.69 7.784 7.784 0 0 1 2.82-2.037 4.129 4.129 0 0 0 -.694 2.36c0 1.946 1.076 3.8 3.158 3.8 2.015 0 3.422-1.647 3.422-3.944a5.069 5.069 0 0 0 -.063-1.036 5.613 5.613 0 0 0 1.188-.792 1.2 1.2 0 0 1 .622-.325c.2 0 .3.163.3.463v4.545c0 .74.221 1.089.78 1.089a1.227 1.227 0 0 0 1.076-.812c.734-1.6 1.811-3.729 2.279-4.539.112-.186.2-.328.271-.328.091 0 .135.071.135.37v3.619c0 1.018.444 1.691 1.431 1.691 1.033 0 1.547-1.023 2.444-2.6a.566.566 0 0 0 .063-.229.337.337 0 0 0 -.357-.327c-.2 0-.314.21-.984.973-.133.145-.269.346-.514.346-.092 0-.156-.112-.156-.253v-4.055c0-1.089-.476-1.529-1.08-1.529a1.509 1.509 0 0 0 -1.318.858 39.816 39.816 0 0 0 -1.966 3.637c-.049.1-.114.235-.161.235s-.065-.072-.065-.235v-2.966c0-.855-.224-1.529-1.1-1.529-.92 0-1.388.65-2.059 1.135a6.4 6.4 0 0 1 -1.1.7c-.444-1.181-1.275-1.78-1.965-1.762a1.144 1.144 0 0 0 -1.186 1.209 1.59 1.59 0 0 0 1.047 1.526 2.7 2.7 0 0 0 1.1.165 1.469 1.469 0 0 0 .356-.026 5 5 0 0 1 .021.813 2.042 2.042 0 0 1 -1.861 2.269c-1.253 0-1.989-1.251-1.989-2.686a4.078 4.078 0 0 1 .824-2.615c.2-.233.362-.375.362-.589 0-.108-.158-.135-.292-.135a5.65 5.65 0 0 0 -2.44.741 14.581 14.581 0 0 0 -2.685 2c-.4-.929-.894-1.74-1.143-2.368-.092-.255-.153-.55-.339-.55-.155 0-.223.162-.333.481a29.217 29.217 0 0 1 -3.019 5.305c-.045.066-.112.14-.136.14-.042 0-.067-.023-.067-.164v-4.06c0-1.089-.422-1.529-1.01-1.529a1.486 1.486 0 0 0 -1.319.858c-.74 1.161-1.633 2.852-2.058 3.684-.066.143-.132.187-.153.187s-.049-.092-.049-.235v-2.965c0-1.089-.422-1.529-1-1.529a1.454 1.454 0 0 0 -1.344.858c-.943 1.647-2.508 4.172-2.8 4.586a.319.319 0 0 1 -.135.141c-.04 0-.066-.045-.066-.16v-3.9c0-1.089-.424-1.529-1.008-1.529-.808 0-1.253.768-1.546 1.252-.4.672-.937 1.577-1.364 2.413a4.021 4.021 0 0 1 -.626 1.065c-.045 0-.045-.21-.045-.6v-3.1a8.8 8.8 0 0 0 2.282-5.793c0-1.254-.536-1.945-1.367-1.945-1.542 0-2.728 2.5-2.728 5.466v2.409a6.025 6.025 0 0 1 -2.22.858c-.422-1.295-1.319-1.967-2.03-1.949a1.146 1.146 0 0 0 -1.189 1.209c0 1.226 1.161 1.736 2.193 1.736h.293a4.373 4.373 0 0 1 .041.743 2.039 2.039 0 0 1 -1.857 2.269c-1.254 0-1.989-1.251-1.989-2.686a4.087 4.087 0 0 1 .824-2.615 1.233 1.233 0 0 0 .359-.589c0-.108-.158-.135-.291-.135-.852 0-2.731 1.186-4.972 3.5a52.243 52.243 0 0 1 -.423-5.424 20.772 20.772 0 0 1 .46-4.123 4.8 4.8 0 0 0 .069-.623c0-.187-.091-.282-.333-.282-1.814 0-5.8 2.99-5.8 7.461a7.944 7.944 0 0 0 1.052 4.262 3.293 3.293 0 0 0 -.63-.045 7.959 7.959 0 0 0 -1.806.278v-.465a5.512 5.512 0 0 0 -.631-2.825.25.25 0 0 0 -.177-.068 1.417 1.417 0 0 0 -.65.23c-.272.14-.54.28-.54.37a.347.347 0 0 0 .067.206 3.506 3.506 0 0 1 .738 1.789 3.592 3.592 0 0 0 -2.77-1.139c-1.346 0-1.751.623-1.751 1.253 0 1.2 1.545 1.806 3.5 1.806a5.238 5.238 0 0 0 1.16-.164c0 .371.045.7.045.976 0 .394.065.7.314.7.379 0 .6-.791.648-1.924a8.284 8.284 0 0 1 2.018-.347 5.355 5.355 0 0 1 1.007.113zm-4.41-.232a7.2 7.2 0 0 1 -1.006.046c-.876 0-1.521-.349-1.521-.854 0-.324.155-.512.6-.512.718 0 1.3.512 1.924 1.32z" transform="translate(-126.636 20.986)"/></g></svg>