<svg xmlns="http://www.w3.org/2000/svg" width="38.931" height="38" viewBox="0 0 38.931 38"><defs><style>.a{fill:#fdb436;}.b{fill:#f1553f;}.c{fill:#24b768;}.d{fill:#198cca;}</style></defs><g transform="translate(-212.001 -152)"><g transform="translate(212.001 152)"><circle class="a" cx="1.765" cy="1.765" r="1.765" transform="translate(35.401 30.735)"/><path class="a" d="M439.975,282.04a7.443,7.443,0,0,0,2.4,5.47l2.188-2.035a4.491,4.491,0,0,1,2.891-7.937,4.237,4.237,0,0,1,.76.077l.028-.093.661-2.793a7.166,7.166,0,0,0-1.449-.167A7.478,7.478,0,0,0,439.975,282.04Z" transform="translate(-410.179 -249.51)"/><circle class="b" cx="1.765" cy="1.765" r="1.765" transform="translate(0 30.735)"/><path class="b" d="M305.849,282.041a7.478,7.478,0,0,0-7.478-7.478,7.165,7.165,0,0,0-1.449.167l.661,2.793.028.093a4.229,4.229,0,0,1,.76-.077,4.491,4.491,0,0,1,2.891,7.937l2.188,2.035A7.443,7.443,0,0,0,305.849,282.041Z" transform="translate(-296.713 -249.511)"/><g transform="translate(9.773 25.558)"><path class="c" d="M345.113,279.095a15.975,15.975,0,0,0-1.95,1.363,8.811,8.811,0,0,1,.723,3.291,12.725,12.725,0,0,1,2.7-2.132,12.427,12.427,0,0,1,15.2,2.12,8.812,8.812,0,0,1,.726-3.287A15.355,15.355,0,0,0,345.113,279.095Z" transform="translate(-343.163 -277.01)"/></g><circle class="d" cx="1.765" cy="1.765" r="1.765" transform="translate(17.684 0)"/><path class="d" d="M364.421,169.96a4.44,4.44,0,0,1-1.9.41h-.151a4.425,4.425,0,0,1-4.324-3.328l-2.772,1.117a7.425,7.425,0,0,0,7.1,5.2h.142a7.425,7.425,0,0,0,7.1-5.2l-2.772-1.117A4.47,4.47,0,0,1,364.421,169.96Z" transform="translate(-342.997 -164.228)"/><g transform="translate(20.229 9.407)"><path class="c" d="M396.644,202.833a12.389,12.389,0,0,1,.635-3.912c-.171.095-.339.193-.517.277a8.731,8.731,0,0,1-2.768.778,15.3,15.3,0,0,0,9.427,17.107,8.939,8.939,0,0,1,2.282-2.308A12.428,12.428,0,0,1,396.644,202.833Z" transform="translate(-393.723 -198.921)"/></g><g transform="translate(6.733 9.467)"><path class="c" d="M337.342,199.425c-.14-.065-.271-.145-.406-.217a12.4,12.4,0,0,1-8.474,15.8,8.934,8.934,0,0,1,2.279,2.312,15.3,15.3,0,0,0,9.458-17.112A8.734,8.734,0,0,1,337.342,199.425Z" transform="translate(-328.462 -199.208)"/></g></g></g></svg>