<svg height="70" viewBox="0 0 127.75 70" width="127.75" xmlns="http://www.w3.org/2000/svg"><path d="m0 0h127.75v70h-127.75z" fill="#343f5c" opacity="0"/><g fill="#535ae0"><path d="m67.676 57.865v2.87a1.263 1.263 0 0 1 -.652 1.041l-2.434 1.178v3.154l4.472-2.163a2.7 2.7 0 0 0 1.454-2.32v-5.135z" transform="translate(-38.537 -20.904)"/><path d="m67.008 21.151a.584.584 0 0 1 .259-.066c.227 0 .393.177.393.475v2.94l2.84-1.363v-3.842a1.818 1.818 0 0 0 -1.817-1.895 2.018 2.018 0 0 0 -.877.207l-3.236 1.568v3.154z" transform="translate(-38.522 9.304)"/><path d="m29.567 84.979a.575.575 0 0 1 -.257.066c-.227 0-.4-.177-.4-.473v-2.872l-2.84 1.363v3.772a1.818 1.818 0 0 0 1.818 1.895 2.018 2.018 0 0 0 .877-.207l3.217-1.559v-3.151z" transform="translate(-8.772 -40.386)"/><path d="m28.92 39.567v-2.942a1.263 1.263 0 0 1 .652-1.041l2.418-1.17v-3.154l-4.456 2.156a2.692 2.692 0 0 0 -1.454 2.329v5.2l1.909-.925z" transform="translate(-8.777 -1.407)"/></g><path d="m40.936 3.751a.582.582 0 0 1 .257-.066c.227 0 .4.177.4.475v2.954l2.84-1.375v-3.844a1.818 1.818 0 0 0 -1.82-1.895 2.018 2.018 0 0 0 -.877.207l-3.236 1.565v3.156z" fill="#04cee0" transform="translate(-18.376 22.75)"/><path d="m3.487 67.579a.584.584 0 0 1 -.259.066c-.227 0-.393-.177-.393-.475v-2.87l-2.84 1.377v3.758a1.818 1.818 0 0 0 1.817 1.895 2.018 2.018 0 0 0 .877-.207l3.211-1.556v-3.156z" fill="#04cee0" transform="translate(11.382 -26.94)"/><path d="m2.84 22.167v-2.954a1.263 1.263 0 0 1 .652-1.041l2.415-1.159v-3.153l-4.453 2.156a2.692 2.692 0 0 0 -1.454 2.318v5.208l1.909-.925z" fill="#04cee0" transform="translate(11.377 12.039)"/><path d="m123.54 7.865h3.181v1.635a3.331 3.331 0 0 1 3.354-1.922 4.515 4.515 0 0 1 3.567 1.568 6.069 6.069 0 0 1 1.375 4.09 6.178 6.178 0 0 1 -1.4 4.188 4.544 4.544 0 0 1 -3.613 1.625 3.359 3.359 0 0 1 -3.279-1.838v5.68h-3.181zm3.013 5.437a3.3 3.3 0 0 0 .754 2.252 2.515 2.515 0 0 0 1.993.861 2.424 2.424 0 0 0 1.918-.85 3.222 3.222 0 0 0 .741-2.2 3.347 3.347 0 0 0 -.741-2.24 2.433 2.433 0 0 0 -1.94-.87 2.522 2.522 0 0 0 -1.97.838 3.181 3.181 0 0 0 -.754 2.206zm12.447 1.01a2.976 2.976 0 0 0 .9 1.8 2.52 2.52 0 0 0 1.761.659 3.163 3.163 0 0 0 1.59-.454 3.94 3.94 0 0 0 1.318-1.218l2.252 1.541a6.749 6.749 0 0 1 -2.258 1.881 6.589 6.589 0 0 1 -2.881.577 5.758 5.758 0 0 1 -4.2-1.566 5.433 5.433 0 0 1 -1.606-4.072 5.849 5.849 0 0 1 1.616-4.217 5.437 5.437 0 0 1 4.09-1.688 5.3 5.3 0 0 1 4.033 1.64 6.025 6.025 0 0 1 1.561 4.294l-.023.82zm0-2.061h5.028a2.852 2.852 0 0 0 -.786-1.75 2.272 2.272 0 0 0 -1.672-.648q-2.102.001-2.57 2.398zm29.04-4.669a5.787 5.787 0 0 1 4.21 1.618 5.531 5.531 0 0 1 1.661 4.142 5.527 5.527 0 0 1 -1.661 4.142 6.314 6.314 0 0 1 -8.441 0 5.531 5.531 0 0 1 -1.661-4.142 5.531 5.531 0 0 1 1.666-4.142 5.813 5.813 0 0 1 4.231-1.619zm-2.879 5.755a3.051 3.051 0 0 0 .82 2.2 2.861 2.861 0 0 0 4.09 0 3.051 3.051 0 0 0 .829-2.2 3.1 3.1 0 0 0 -.82-2.193 2.661 2.661 0 0 0 -2.045-.886 2.711 2.711 0 0 0 -2.059.863 3.083 3.083 0 0 0 -.81 2.216zm17.811-2.458a5 5 0 0 0 -2.074-.511 2.827 2.827 0 0 0 -2.09.85 2.883 2.883 0 0 0 -.843 2.127 2.813 2.813 0 0 0 2.97 2.967 3.863 3.863 0 0 0 2.009-.627l1.063 2.215-.732.454a6.2 6.2 0 0 1 -2.924.682 5.378 5.378 0 0 1 -4-1.591 5.533 5.533 0 0 1 -1.591-4.065 5.613 5.613 0 0 1 1.66-4.18 5.719 5.719 0 0 1 4.208-1.622 7.684 7.684 0 0 1 3.347.82zm9.514-3.013h3.181v10.876h-3.181v-1.39a3.536 3.536 0 0 1 -3.279 1.7 4.567 4.567 0 0 1 -3.6-1.606 6 6 0 0 1 -1.406-4.108 6.036 6.036 0 0 1 1.429-4.09 4.515 4.515 0 0 1 3.556-1.65 3.892 3.892 0 0 1 2.879 1.136l.423.611zm-5.226 5.46a3.263 3.263 0 0 0 .754 2.222 2.649 2.649 0 0 0 3.922 0 3.274 3.274 0 0 0 .752-2.222 3.181 3.181 0 0 0 -.8-2.2 2.543 2.543 0 0 0 -1.972-.888 2.413 2.413 0 0 0 -1.893.877 3.247 3.247 0 0 0 -.758 2.21zm10.027-10.557h3.181v15.973h-3.181zm-41.467 4.831a4.53 4.53 0 0 0 -.5-.023c-1.136 0-3.3.12-3.8 2.127v-1.839h-3.181v10.877h3.181v-5.294a3.429 3.429 0 0 1 .268-1.559 3.175 3.175 0 0 1 2.865-1.254l1.227-3.029zm7 0h-3.1v-.777q0-1.861 1.661-1.861a2.006 2.006 0 0 1 .454.057 5.081 5.081 0 0 1 .543.166l.42-2.3a7.614 7.614 0 0 0 -2.393-.42 3.789 3.789 0 0 0 -2.8 1.052 3.756 3.756 0 0 0 -1.052 2.779v12.446h3.17v-8.107h1.872z" fill="#3c3c4f" transform="translate(-84.093 20.849)"/></svg>